<svg width="187" height="187" viewBox="0 0 187 187" fill="none" xmlns="http://www.w3.org/2000/svg">
<g clip-path="url(#clip0_1_35)">
<path d="M112.588 2.74916C99.5231 -0.509714 85.7756 -0.97539 72.3985 1.91245C71.3647 2.13563 70.7075 3.15462 70.9307 4.18843C71.1539 5.22224 72.1729 5.87939 73.2067 5.65621C86.0176 2.8906 99.2142 3.34661 111.767 6.4927C141.785 14.0164 166.772 36.586 176.288 66.0681C179.969 77.4697 181.532 89.6103 181.845 102.334C181.871 103.391 182.749 104.227 183.807 104.201C184.864 104.175 185.7 103.297 185.674 102.24C185.357 89.3414 183.775 76.8886 180.004 65.1106C170.12 34.2451 144.005 10.5859 112.588 2.74916Z" fill="black"/>
<path d="M62.6803 8.5431C63.6998 8.26184 64.2983 7.20733 64.0171 6.18779C63.7358 5.16825 62.6813 4.56975 61.6617 4.85101C47.672 8.71037 27.9927 22.0458 15.8306 39.8609C15.8258 39.8678 15.8212 39.8748 15.8165 39.8818C5.13743 55.9752 -1.55685 76.1995 0.312176 95.8242C0.313956 95.8429 0.31601 95.8615 0.318338 95.8802C0.766266 99.4636 1.51823 103.04 2.27108 106.621C3.85672 114.163 5.44627 121.724 4.2073 129.405C4.03888 130.449 4.74877 131.432 5.7929 131.601C6.83703 131.769 7.82 131.059 7.98843 130.015C9.28355 121.986 7.67541 114.155 6.06694 106.321C5.32307 102.699 4.57913 99.076 4.12226 95.433C2.36441 76.8891 8.69609 57.5437 19.0009 42.0099C30.7003 24.8786 49.6453 12.1391 62.6803 8.5431Z" fill="black"/>
<path d="M87.81 12.8216C111.853 11.3535 135.891 21.1656 152.034 39.964C152.723 40.7663 152.631 41.9753 151.829 42.6644C151.027 43.3534 149.818 43.2616 149.129 42.4592C133.777 24.5827 110.903 15.245 88.0319 16.6452C88.0237 16.6457 88.0156 16.6462 88.0074 16.6466C59.0846 18.0461 31.9982 37.6669 22.0353 65.1605C21.675 66.1548 20.5768 66.6688 19.5824 66.3085C18.5881 65.9482 18.0741 64.85 18.4344 63.8556C28.93 34.8922 57.3724 14.2996 87.81 12.8216Z" fill="black"/>
<path d="M157.868 48.3301C157.279 47.4521 156.089 47.2183 155.211 47.808C154.333 48.3976 154.099 49.5874 154.689 50.4654C163.638 63.7911 167.338 78.2921 168.801 95.5004C168.891 96.5542 169.818 97.3358 170.872 97.2463C171.925 97.1567 172.707 96.2298 172.618 95.1759C171.123 77.5915 167.307 62.3841 157.868 48.3301Z" fill="black"/>
<path d="M171.337 103.306C172.393 103.24 173.302 104.043 173.368 105.098C174.09 116.646 174.096 129.71 172.819 139.365C172.68 140.414 171.718 141.151 170.669 141.013C169.621 140.874 168.883 139.911 169.022 138.863C170.253 129.557 170.26 116.77 169.545 105.337C169.48 104.282 170.282 103.372 171.337 103.306Z" fill="black"/>
<path d="M19.1434 74.4358C19.3917 73.4077 18.7595 72.3731 17.7314 72.1249C16.7033 71.8766 15.6687 72.5088 15.4204 73.5369C14.0149 79.3584 13.2852 85.3387 13.2563 91.3246C13.2265 97.4942 14.3769 103.517 15.5277 109.541C16.4691 114.469 17.4108 119.399 17.7071 124.413C18.0962 130.998 16.711 137.593 14.3173 143.87C13.9405 144.859 14.4361 145.965 15.4243 146.342C16.4125 146.719 17.5191 146.223 17.8959 145.235C20.4261 138.6 21.9597 131.453 21.5304 124.187C21.2362 119.208 20.2946 114.307 19.3533 109.407C18.2047 103.429 17.0567 97.4536 17.0862 91.3431C17.1137 85.6553 17.8072 79.9704 19.1434 74.4358Z" fill="black"/>
<path d="M69.3924 31.8804C69.7866 32.8619 69.3104 33.977 68.329 34.3711C48.4758 42.344 33.5671 60.3357 30.5258 81.5519C29.2551 90.4157 30.6279 99.1958 32.0003 107.974C32.7732 112.917 33.546 117.859 33.8464 122.816C34.4979 133.563 33.2738 145.367 26.2796 156.108C25.7024 156.994 24.5161 157.245 23.6298 156.667C22.7435 156.09 22.4929 154.904 23.0701 154.018C29.4425 144.232 30.6487 133.363 30.0234 123.047C29.7186 118.018 28.9506 113.019 28.1832 108.022C26.8062 99.0574 25.4308 90.1028 26.7345 81.0084C29.9819 58.3551 45.8598 39.2672 66.9017 30.817C67.8832 30.4229 68.9983 30.899 69.3924 31.8804Z" fill="black"/>
<path d="M136.62 42.7832C120.958 28.1136 98.2574 22.9937 77.6265 27.5188C76.5935 27.7454 75.9397 28.7666 76.1663 29.7996C76.3929 30.8327 77.414 31.4865 78.4471 31.2599C97.983 26.9749 119.358 31.8629 134.002 45.5785C146.345 57.139 153.512 73.9602 155.388 92.3128C155.496 93.365 156.436 94.1307 157.488 94.0231C158.54 93.9156 159.306 92.9755 159.199 91.9233C157.25 72.8665 149.78 55.1092 136.62 42.7832Z" fill="black"/>
<path d="M158.798 101.043C159.85 100.935 160.79 101.701 160.898 102.753C162.717 120.461 161.933 139.587 159.188 158.089C159.032 159.136 158.059 159.858 157.012 159.703C155.966 159.547 155.244 158.573 155.399 157.527C158.107 139.282 158.869 120.481 157.088 103.144C156.98 102.092 157.746 101.151 158.798 101.043Z" fill="black"/>
<path d="M92.0335 38.9189C62.6884 38.9189 38.8453 62.3304 38.8453 91.2755C38.8453 94.3673 39.1197 97.3968 39.6427 100.343C39.8276 101.384 40.8217 102.078 41.863 101.893C42.9044 101.708 43.5987 100.714 43.4138 99.6731C42.9295 96.9457 42.6753 94.1402 42.6753 91.2755C42.6753 64.5045 64.7444 42.7489 92.0335 42.7489C104.366 42.7489 115.633 47.1937 124.281 54.538C125.087 55.2226 126.296 55.1241 126.98 54.318C127.665 53.5118 127.566 52.3033 126.76 51.6187C117.441 43.7044 105.301 38.9189 92.0335 38.9189Z" fill="black"/>
<path d="M131.051 58.7587C131.814 58.0267 133.027 58.0521 133.759 58.8155C142.21 67.6285 144.915 81.4798 146.705 93.104C148.721 106.198 149.029 118.972 149.029 124.894C149.029 125.952 148.172 126.809 147.114 126.809C146.057 126.809 145.199 125.952 145.199 124.894C145.199 119.067 144.894 106.51 142.92 93.6869C141.258 82.8953 138.862 69.6713 130.994 61.4664C130.262 60.703 130.288 59.4908 131.051 58.7587Z" fill="black"/>
<path d="M148.543 135.861C148.627 134.807 147.841 133.884 146.786 133.8C145.732 133.716 144.809 134.503 144.725 135.557C143.785 147.353 142.556 159.136 140.062 170.021C139.826 171.052 140.47 172.079 141.501 172.315C142.532 172.551 143.559 171.907 143.796 170.876C146.355 159.705 147.6 147.689 148.543 135.861Z" fill="black"/>
<path d="M42.7252 107.391C43.7629 107.187 44.7698 107.862 44.9741 108.9C49.0231 129.461 46.226 148.14 35.5035 164.502C34.9237 165.387 33.7367 165.634 32.8521 165.054C31.9675 164.474 31.7203 163.287 32.3001 162.403C42.3888 147.008 45.104 129.382 41.2163 109.64C41.0119 108.602 41.6875 107.595 42.7252 107.391Z" fill="black"/>
<path d="M92.0335 51.3788C72.9846 51.3788 54.2975 66.1242 52.3902 84.656C51.5551 92.7692 52.7281 100.761 53.9016 108.756C54.9263 115.737 55.9514 122.72 55.6402 129.789C54.9279 145.967 50.1811 159.322 42.0247 170.321C41.3948 171.171 41.5728 172.37 42.4223 173C43.2718 173.63 44.4712 173.452 45.1012 172.602C53.7519 160.936 58.7236 146.83 59.4665 129.958C59.7763 122.92 58.7481 115.959 57.7206 109.002C56.5456 101.047 55.3715 93.098 56.2 85.0481C57.8756 68.7682 74.6324 55.2088 92.0335 55.2088C100.15 55.2088 121.149 59.6035 127.828 81.3633C132.014 94.9994 133.156 113.454 132.142 131.382C131.128 149.309 127.975 166.454 123.734 177.448C123.353 178.435 123.845 179.544 124.832 179.924C125.818 180.305 126.927 179.813 127.307 178.827C131.744 167.324 134.94 149.745 135.966 131.599C136.992 113.455 135.864 94.4896 131.49 80.2394C124.075 56.0852 100.832 51.3788 92.0335 51.3788Z" fill="black"/>
<path d="M62.5632 164.505C63.4491 165.083 63.6988 166.269 63.121 167.155C61.9335 168.976 60.8889 170.881 59.8442 172.786C58.7995 174.691 57.7546 176.596 56.5669 178.417C55.9891 179.303 54.8026 179.553 53.9168 178.975C53.0309 178.397 52.7812 177.211 53.359 176.325C54.5465 174.504 55.5911 172.599 56.6358 170.694C57.6805 168.789 58.7253 166.884 59.9131 165.063C60.4908 164.177 61.6774 163.927 62.5632 164.505Z" fill="black"/>
<path d="M78.9607 71.2574C79.8398 70.6694 80.0758 69.4801 79.4878 68.601C78.8998 67.7219 77.7105 67.4859 76.8314 68.0739C69.2482 73.1459 64.5959 80.1206 64.5959 90.3381C64.5959 96.4221 65.6737 101.395 66.7792 106.496C68.4334 114.129 69.5554 121.745 69.3538 129.585C69.109 139.105 67.2463 147.804 63.6657 156.091C63.2462 157.062 63.6932 158.189 64.6641 158.609C65.635 159.028 66.7621 158.581 67.1816 157.61C70.9674 148.848 72.9259 139.663 73.1825 129.683C73.3921 121.536 72.2389 113.619 70.5232 105.686C69.4151 100.563 68.4259 95.9891 68.4259 90.3381C68.4259 81.5837 72.2771 75.7278 78.9607 71.2574Z" fill="black"/>
<path d="M86.435 64.5289C94.3816 62.9089 102.933 64.9108 109.227 70.0052C120.47 79.105 121.965 95.7002 123.177 109.148L123.239 109.833C124.804 127.167 123.012 144.004 119.402 160.913C119.181 161.947 118.163 162.607 117.129 162.386C116.095 162.165 115.435 161.148 115.656 160.113C119.212 143.458 120.946 127.022 119.424 110.177C119.374 109.62 119.324 109.054 119.273 108.482L119.272 108.473C118.196 96.3211 116.848 81.1008 106.818 72.9823C101.436 68.6267 94.0559 66.8841 87.2001 68.2817C86.1638 68.493 85.1524 67.8242 84.9411 66.7879C84.7299 65.7516 85.3987 64.7402 86.435 64.5289Z" fill="black"/>
<path d="M116.695 170.442C116.956 169.417 116.337 168.375 115.312 168.114C114.287 167.853 113.244 168.472 112.983 169.497C111.826 174.045 110.042 178.149 107.78 181.928C107.237 182.836 107.532 184.012 108.44 184.555C109.347 185.098 110.523 184.803 111.066 183.895C113.504 179.823 115.439 175.376 116.695 170.442Z" fill="black"/>
<path d="M107.331 142.652C108.381 142.776 109.132 143.728 109.007 144.779C107.199 160.062 103.116 173.693 96.5638 185.516C96.0511 186.441 94.8856 186.775 93.9606 186.263C93.0355 185.75 92.7012 184.585 93.2138 183.659C99.4839 172.345 103.443 159.209 105.204 144.329C105.328 143.278 106.28 142.528 107.331 142.652Z" fill="black"/>
<path d="M106.936 89.3337C105.608 82.2398 99.5198 76.8134 92.1283 76.8134C82.1193 76.8134 75.0969 86.9023 77.5715 96.2887C81.7587 112.857 82.4461 128.826 79.6115 144.206L79.6095 144.217C77.1497 158.026 72.426 170.449 65.9825 180.975C65.4304 181.877 65.714 183.056 66.6161 183.608C67.5181 184.161 68.697 183.877 69.2492 182.975C75.9561 172.018 80.8405 159.142 83.3791 144.895C86.3222 128.921 85.593 112.393 81.2823 95.3404L81.2771 95.3203C79.4209 88.2989 84.5948 80.6434 92.1283 80.6434C97.5649 80.6434 102.155 84.6428 103.169 90.0253C105.956 106.194 107.408 121.187 106.374 134.096C106.29 135.15 107.076 136.073 108.13 136.157C109.185 136.242 110.108 135.456 110.192 134.401C111.264 121.021 109.751 105.659 106.941 89.3606C106.939 89.3516 106.938 89.3427 106.936 89.3337Z" fill="black"/>
<path d="M86.4141 172.274C87.3548 172.757 87.7255 173.912 87.2421 174.852L82.1678 184.727C81.6844 185.668 80.53 186.039 79.5893 185.555C78.6486 185.072 78.2779 183.917 78.7613 182.977L83.8355 173.102C84.3189 172.161 85.4734 171.791 86.4141 172.274Z" fill="black"/>
<path d="M93.5526 91.1803C93.3107 90.1507 92.28 89.5121 91.2504 89.754C90.2208 89.9959 89.5822 91.0266 89.8241 92.0562C96.282 119.546 95.395 143.685 87.529 164.248C87.1511 165.236 87.6456 166.343 88.6334 166.721C89.6212 167.099 90.7283 166.604 91.1062 165.616C99.308 144.176 100.142 119.228 93.5526 91.1803Z" fill="black"/>
</g>
<defs>
<clipPath id="clip0_1_35">
<rect width="186.503" height="186.503" fill="white"/>
</clipPath>
</defs>
</svg>
