<svg width="187" height="187" viewBox="0 0 187 187" fill="none" xmlns="http://www.w3.org/2000/svg">
<path fill-rule="evenodd" clip-rule="evenodd" d="M9.47086 51.1791V30.2339C9.47086 18.7851 18.7853 9.47086 30.2339 9.47086H51.1791C53.7943 9.47086 55.9145 7.35066 55.9145 4.73543C55.9145 2.1202 53.7943 0 51.1791 0H30.2339C13.563 0 0 13.5628 0 30.2339V51.1791C0 53.7943 2.1202 55.9145 4.73543 55.9145C7.35066 55.9145 9.47086 53.7943 9.47086 51.1791ZM51.1791 177.032C53.7943 177.032 55.9145 179.152 55.9145 181.768C55.9145 184.383 53.7943 186.503 51.1791 186.503H30.2339C13.563 186.503 0 172.94 0 156.269V135.324C0 132.709 2.1202 130.589 4.73543 130.589C7.35066 130.589 9.47086 132.709 9.47086 135.324V156.269C9.47086 167.718 18.7853 177.032 30.2339 177.032H51.1791ZM186.503 135.324V156.269C186.503 172.94 172.94 186.503 156.269 186.503H135.324C132.709 186.503 130.589 184.383 130.589 181.768C130.589 179.152 132.709 177.032 135.324 177.032H156.269C167.718 177.032 177.032 167.718 177.032 156.269V135.324C177.032 132.709 179.152 130.589 181.768 130.589C184.383 130.589 186.503 132.709 186.503 135.324ZM186.503 30.2339V51.1791C186.503 53.7943 184.383 55.9145 181.768 55.9145C179.152 55.9145 177.032 53.7943 177.032 51.1791V30.2339C177.032 18.7851 167.718 9.47086 156.269 9.47086H135.324C132.709 9.47086 130.589 7.35066 130.589 4.73543C130.589 2.1202 132.709 0 135.324 0H156.269C172.94 0 186.503 13.5628 186.503 30.2339ZM125.931 137.844C127.926 136.001 128.049 132.89 126.206 130.895C124.363 128.899 121.252 128.776 119.257 130.619C112.158 137.176 102.922 140.788 93.2511 140.788C83.5797 140.788 74.3438 137.176 67.2448 130.619C65.2494 128.776 62.1388 128.9 60.2958 130.895C58.453 132.89 58.5763 136.001 60.5713 137.844C69.4931 146.084 81.0987 150.623 93.2511 150.623C105.403 150.623 117.009 146.084 125.931 137.844ZM103.087 70.3029V105.272C103.087 112.202 97.4491 117.839 90.5196 117.839H86.5127C83.7967 117.839 81.5951 115.638 81.5951 112.922C81.5951 110.206 83.7967 108.004 86.5127 108.004H90.5196C92.026 108.004 93.2515 106.779 93.2515 105.272V70.3029C93.2515 67.587 95.4531 65.3854 98.1691 65.3854C100.885 65.3854 103.087 67.587 103.087 70.3029ZM136.963 84.0539V70.0297C136.963 67.4648 134.884 65.3854 132.319 65.3854C129.754 65.3854 127.674 67.4648 127.674 70.0297V84.0539C127.674 86.6188 129.754 88.6982 132.319 88.6982C134.884 88.6982 136.963 86.6188 136.963 84.0539ZM50.6327 84.0539C50.6327 86.6188 52.7121 88.6982 55.277 88.6982C57.842 88.6982 59.9214 86.6188 59.9214 84.0539V70.0297C59.9214 67.4648 57.842 65.3854 55.277 65.3854C52.7121 65.3854 50.6327 67.4648 50.6327 70.0297V84.0539Z" fill="black"/>
</svg>
